#!OML:ASF F:\VICON\USERDATA\INSTALL\Justin_Nancy\Justin_Nancy.ASF
:FULLY-SPECIFIED
:DEGREES
287
root 0.538705 17.5729 15.0226 -0.941026 -3.9769 2.3666
lowerback 6.1747 1.66322 -0.754836
upperback 0.225455 2.19484 0.975903
thorax -3.29512 1.10993 1.23316
lowerneck -17.2693 -3.34292 -10.244
upperneck 21.5366 -3.35449 6.35188
head 9.99259 -1.66659 3.49267
rclavicle 5.26779e-015 -3.97569e-015
rhumerus -32.4141 -13.6354 -79.3586
rradius 30.2636
rwrist 6.7863
rhand -13.2728 10.4165
rfingers 7.12502
rthumb 12.8302 -19.1692
lclavicle 5.26779e-015 -3.97569e-015
lhumerus -35.1089 9.77418 84.2742
lradius 27.3394
lwrist -8.49168
lhand -13.7941 26.3072
lfingers 7.12502
lthumb 12.3276 415.924
rfemur -7.8785 2.1591 18.3099
rtibia 62.8291
rfoot 10.7715 -2.08803
rtoes 7.54231
lfemur -13.8768 -2.05346 -25.1893
ltibia 21.9672
lfoot -4.43153 -0.26389
ltoes 4.79815
288
root 0.541114 17.5664 15.1625 -1.06094 -3.83855 2.48758
lowerback 6.32315 1.57019 -1.00289
upperback 0.179144 2.05306 0.985067
thorax -3.43134 1.04422 1.38986
lowerneck -16.9742 -3.24534 -9.95245
upperneck 21.4529 -3.24355 6.00883
head 9.886 -1.63378 3.33555
rclavicle -2.33324e-014 3.18055e-015
rhumerus -32.7464 -13.7408 -79.2779
rradius 30.1256
rwrist 7.88994
rhand -13.4068 11.1666
rfingers 7.12502
rthumb 12.701 -18.4272
lclavicle -2.33324e-014 3.18055e-015
lhumerus -34.9644 9.40691 84.2905
lradius 27.7424
lwrist -8.39
lhand -14.512 25.493
lfingers 7.12502
lthumb 11.6353 415.15
rfemur -9.18172 1.66602 18.0724
rtibia 64.2776
rfoot 9.03693 -2.88945
rtoes 6.68589
lfemur -13.2386 -1.99721 -25.4108
ltibia 22.0465
lfoot -5.16487 -0.351717
ltoes 5.62374
289
root 0.542433 17.5651 15.2972 -1.08324 -3.46645 2.58033
lowerback 6.36785 1.39892 -1.2218
upperback 0.259985 1.80968 1.02263
thorax -3.37282 0.926165 1.57439
lowerneck -17.056 -3.15819 -9.77616
upperneck 21.3721 -3.07605 5.67147
head 9.84975 -1.57787 3.20684
rclavicle 5.01931e-015 7.15625e-015
rhumerus -32.6914 -13.7539 -79.2832
rradius 29.9041
rwrist 8.77487
rhand -12.7387 10.8136
rfingers 7.12502
rthumb 13.345 -18.7391
lclavicle 5.01931e-015 7.15625e-015
lhumerus -34.2592 9.2232 84.357
lradius 27.8045
lwrist -8.39413
lhand -15.5591 24.3894
lfingers 7.12502
lthumb 10.6255 414.101
rfemur -10.5241 1.04362 17.9162
rtibia 65.5157
rfoot 7.46585 -3.58972
rtoes 5.44366
lfemur -12.7878 -1.97491 -25.5979
ltibia 22.1842
lfoot -5.72332 -0.601834
ltoes 5.56699
290
root 0.545219 17.5621 15.4245 -1.07048 -3.04181 2.98249
lowerback 6.40019 1.21191 -1.69483
upperback 0.434375 1.52429 0.98127
thorax -3.2112 0.788406 1.8255
lowerneck -17.5026 -3.1536 -9.89961
upperneck 21.394 -2.97754 5.62977
head 9.93461 -1.54143 3.22507
rclavicle 2.29099e-014 -6.36111e-015
rhumerus -32.3023 -13.851 -79.2914
rradius 29.4836
rwrist 9.54431
rhand -12.1365 10.2287
rfingers 7.12502
rthumb 13.9255 -19.285
lclavicle 2.29099e-014 -6.36111e-015
lhumerus -33.3565 9.28903 84.4154
lradius 27.7682
lwrist -8.3257
lhand -16.3655 24.3313
lfingers 7.12502
lthumb 9.84755 414.081
rfemur -11.9297 0.323262 17.3673
rtibia 66.5666
rfoot 6.29658 -3.88262
rtoes 3.82228
lfemur -12.4836 -1.93952 -26.1282
ltibia 22.4117
lfoot -6.20869 -0.934322
ltoes 5.5188
291
root 0.551118 17.5538 15.5554 -1.16973 -2.847 3.08927
lowerback 6.63949 1.09408 -1.83899
upperback 0.416245 1.35225 0.956826
thorax -3.35901 0.706252 1.89313
lowerneck -17.3825 -3.09411 -9.69422
upperneck 21.3976 -2.93005 5.48527
head 9.90333 -1.52094 3.14617
rclavicle -3.55328e-015 0
rhumerus -32.4029 -14.0996 -79.26
rradius 29.0977
rwrist 10.4619
rhand -12.1678 9.80086
rfingers 7.12502
rthumb 13.8953 -19.7149
lclavicle -3.55328e-015 0
lhumerus -33.0725 9.12669 84.3658
lradius 28.138
lwrist -7.96546
lhand -16.0778 25.8241
lfingers 7.12502
lthumb 10.1251 415.56
rfemur -13.1685 -0.149786 17.1561
rtibia 67.3899
rfoot 5.13424 -4.13984
rtoes 3.10368
lfemur -12.0369 -2.02032 -26.3341
ltibia 22.6863
lfoot -6.7739 -0.91865
ltoes 5.50128
292
root 0.555054 17.544 15.6901 -1.29541 -2.7686 2.9373
lowerback 6.76737 1.00338 -1.77928
upperback 0.396528 1.23672 1.03516
thorax -3.44608 0.649492 1.94967
lowerneck -17.0754 -3.01906 -9.71971
upperneck 21.4272 -2.8765 5.58875
head 9.85316 -1.49105 3.19628
rclavicle -1.98785e-015 7.95139e-016
rhumerus -32.7082 -14.0485 -79.2297
rradius 28.8862
rwrist 10.7319
rhand -12.351 9.70993
rfingers 7.12502
rthumb 13.7187 -19.8179
lclavicle -1.98785e-015 7.95139e-016
lhumerus -32.8397 8.9967 84.2705
lradius 28.4373
lwrist -8.12277
lhand -15.1369 26.3711
lfingers 7.12502
lthumb 11.0328 416.061
rfemur -14.3183 -0.328666 17.3206
rtibia 67.9831
rfoot 3.95123 -4.62488
rtoes 3.98458
lfemur -11.5928 -2.10723 -26.238
ltibia 23.0558
lfoot -7.39338 -0.757886
ltoes 5.37216
293
root 0.553963 17.5304 15.8226 -1.35003 -2.59867 2.92144
lowerback 6.73081 0.91552 -1.86511
upperback 0.536791 1.11566 1.08941
thorax -3.2774 0.587955 2.06743
lowerneck -17.2497 -3.01057 -9.78326
upperneck 21.5294 -2.83057 5.5865
head 9.91941 -1.47451 3.21377
rclavicle -1.26477e-014 -2.38542e-015
rhumerus -32.7464 -14.3555 -79.132
rradius 28.6403
rwrist 10.7201
rhand -12.455 10.5224
rfingers 7.12502
rthumb 13.6185 -19.0121
lclavicle -1.26477e-014 -2.38542e-015
lhumerus -32.1766 8.83744 84.2938
lradius 28.5401
lwrist -8.10809
lhand -15.0541 26.4881
lfingers 7.12502
lthumb 11.1126 416.174
rfemur -15.5616 -0.593917 17.3584
rtibia 68.4185
rfoot 2.81924 -4.77963
rtoes 3.88188
lfemur -11.338 -2.13458 -26.2831
ltibia 23.5708
lfoot -7.9992 -0.668535
ltoes 5.34509
